<svg width="109" height="39" viewBox="0 0 109 39" fill="none" xmlns="http://www.w3.org/2000/svg">
<mask id="mask0" mask-type="alpha" maskUnits="userSpaceOnUse" x="0" y="6" width="26" height="27">
<path fill-rule="evenodd" clip-rule="evenodd" d="M0 6.33923H25.8712V32.2102H0V6.33923Z" fill="white"/>
</mask>
<g mask="url(#mask0)">
<path fill-rule="evenodd" clip-rule="evenodd" d="M-0.000854492 19.2752C-0.000854492 26.4072 5.80315 32.2102 12.9351 32.2102C20.0671 32.2102 25.8711 26.4072 25.8711 19.2752C25.8711 12.1422 20.0671 6.33923 12.9351 6.33923C5.80315 6.33923 -0.000854492 12.1422 -0.000854492 19.2752Z" fill="#63C19C"/>
</g>
<mask id="mask1" mask-type="alpha" maskUnits="userSpaceOnUse" x="26" y="0" width="18" height="39">
<path fill-rule="evenodd" clip-rule="evenodd" d="M26.6177 0.00012207H43.9957V38.5498H26.6177V0.00012207Z" fill="white"/>
</mask>
<g mask="url(#mask1)">
<path fill-rule="evenodd" clip-rule="evenodd" d="M34.5827 38.5501H26.6177L36.0317 0.00012207H43.9957L34.5827 38.5501Z" fill="#003846"/>
</g>
<mask id="mask2" mask-type="alpha" maskUnits="userSpaceOnUse" x="38" y="0" width="18" height="39">
<path fill-rule="evenodd" clip-rule="evenodd" d="M38.2075 0.00012207H55.5845V38.5498H38.2075V0.00012207Z" fill="white"/>
</mask>
<g mask="url(#mask2)">
<path fill-rule="evenodd" clip-rule="evenodd" d="M46.1715 38.5501H38.2075L47.6205 0.00012207H55.5845L46.1715 38.5501Z" fill="#003846"/>
</g>
<path fill-rule="evenodd" clip-rule="evenodd" d="M68.5544 12.2269C68.5544 11.5049 68.0144 11.0679 67.2924 11.0679H65.3474V13.3859H67.2924C68.0144 13.3859 68.5544 12.9349 68.5544 12.2269ZM63.5184 18.0489V9.45691H67.5364C69.4054 9.45691 70.4224 10.7199 70.4224 12.2269C70.4224 13.7209 69.3924 14.9969 67.5364 14.9969H65.3474V18.0489H63.5184Z" fill="#003846"/>
<path fill-rule="evenodd" clip-rule="evenodd" d="M77.6403 13.7592C77.6403 12.2402 76.7123 11.0682 74.9483 11.0682H73.3893V16.4392H74.9483C76.6483 16.4392 77.6403 15.2152 77.6403 13.7592ZM71.5603 18.0492V9.45715H74.9483C77.6403 9.45715 79.5083 11.1702 79.5083 13.7592C79.5083 16.3492 77.6403 18.0492 74.9483 18.0492H71.5603Z" fill="#003846"/>
<path fill-rule="evenodd" clip-rule="evenodd" d="M85.8494 12.2269C85.8494 11.5049 85.3084 11.0679 84.5874 11.0679H82.6424V13.3859H84.5874C85.3084 13.3859 85.8494 12.9349 85.8494 12.2269ZM80.8134 18.0489V9.45691H84.8314C86.7004 9.45691 87.7174 10.7199 87.7174 12.2269C87.7174 13.7209 86.6874 14.9969 84.8314 14.9969H82.6424V18.0489H80.8134Z" fill="#003846"/>
<path fill-rule="evenodd" clip-rule="evenodd" d="M70.2038 26.6477C70.2038 25.0377 69.1738 23.8267 67.5888 23.8267C66.0038 23.8267 64.9868 25.0377 64.9868 26.6477C64.9868 28.2457 66.0038 29.4687 67.5888 29.4687C69.1738 29.4687 70.2038 28.2457 70.2038 26.6477ZM63.1058 26.6477C63.1058 24.0587 64.9998 22.2037 67.5888 22.2037C70.1908 22.2037 72.0848 24.0587 72.0848 26.6477C72.0848 29.2377 70.1908 31.0917 67.5888 31.0917C64.9998 31.0917 63.1058 29.2377 63.1058 26.6477Z" fill="#003846"/>
<path fill-rule="evenodd" clip-rule="evenodd" d="M79.3024 30.9378L75.2064 25.3338V30.9378H73.3774V22.3448H75.2574L79.2384 27.7438V22.3448H81.0684V30.9378H79.3024Z" fill="#003846"/>
<path fill-rule="evenodd" clip-rule="evenodd" d="M82.7721 30.9378V22.3448H84.6011V29.3278H88.2341V30.9378H82.7721Z" fill="#003846"/>
<mask id="mask3" mask-type="alpha" maskUnits="userSpaceOnUse" x="0" y="-1" width="109" height="40">
<path fill-rule="evenodd" clip-rule="evenodd" d="M0 38.5499H108.518V-0.00012207H0V38.5499Z" fill="white"/>
</mask>
<g mask="url(#mask3)">
<path fill-rule="evenodd" clip-rule="evenodd" d="M89.5129 30.9378H91.3409V22.3448H89.5129V30.9378Z" fill="#003846"/>
<path fill-rule="evenodd" clip-rule="evenodd" d="M98.9685 30.9378L94.8725 25.3338V30.9378H93.0435V22.3448H94.9235L98.9055 27.7438V22.3448H100.734V30.9378H98.9685Z" fill="#003846"/>
<path fill-rule="evenodd" clip-rule="evenodd" d="M102.438 30.9378V22.3448H108.518V23.9568H104.267V25.7718H108.428V27.3818H104.267V29.3278H108.518V30.9378H102.438Z" fill="#003846"/>
</g>
</svg>
