<svg width="24" height="24" viewBox="0 0 24 24" fill="none" xmlns="http://www.w3.org/2000/svg">
<path fill-rule="evenodd" clip-rule="evenodd" d="M4.582 15H2.458C3.732 19.057 7.522 22 12 22C17.523 22 22 17.523 22 12C22 6.477 17.523 2 12 2C7.522 2 3.732 4.943 2.458 9H4.582C6.01643 5.44786 9.76766 3.41114 13.528 4.14281C17.2883 4.87449 20.0021 8.16917 20 12C19.9948 15.8265 17.2816 19.1139 13.5255 19.8447C9.76951 20.5756 6.02162 18.5453 4.582 15ZM10 8V11H1V13H10V16L15 12L10 8Z" fill="black"/>
</svg>
