<svg width="17" height="17" viewBox="0 0 17 17" fill="none" xmlns="http://www.w3.org/2000/svg">
<path d="M5.05 1.81C5.49735 1.81 5.86 1.44735 5.86 1C5.86 0.552649 5.49735 0.19 5.05 0.19V1.81ZM0.19 5.05C0.19 5.49735 0.552649 5.86 1 5.86C1.44735 5.86 1.81 5.49735 1.81 5.05H0.19ZM14.77 5.05C14.77 5.49735 15.1326 5.86 15.58 5.86C16.0274 5.86 16.39 5.49735 16.39 5.05H14.77ZM11.53 0.19C11.0826 0.19 10.72 0.552649 10.72 1C10.72 1.44735 11.0826 1.81 11.53 1.81V0.19ZM11.53 14.77C11.0826 14.77 10.72 15.1326 10.72 15.58C10.72 16.0274 11.0826 16.39 11.53 16.39V14.77ZM16.39 11.53C16.39 11.0826 16.0274 10.72 15.58 10.72C15.1326 10.72 14.77 11.0826 14.77 11.53H16.39ZM1.81 11.53C1.81 11.0826 1.44735 10.72 1 10.72C0.552649 10.72 0.19 11.0826 0.19 11.53H1.81ZM5.05 16.39C5.49735 16.39 5.86 16.0274 5.86 15.58C5.86 15.1326 5.49735 14.77 5.05 14.77V16.39ZM5.05 0.19H2.62V1.81H5.05V0.19ZM2.62 0.19C1.27795 0.19 0.19 1.27795 0.19 2.62H1.81C1.81 2.17265 2.17265 1.81 2.62 1.81V0.19ZM0.19 2.62V5.05H1.81V2.62H0.19ZM16.39 5.05V2.62H14.77V5.05H16.39ZM16.39 2.62C16.39 1.27795 15.3021 0.19 13.96 0.19V1.81C14.4074 1.81 14.77 2.17265 14.77 2.62H16.39ZM13.96 0.19H11.53V1.81H13.96V0.19ZM11.53 16.39H13.96V14.77H11.53V16.39ZM13.96 16.39C15.3021 16.39 16.39 15.3021 16.39 13.96H14.77C14.77 14.4074 14.4074 14.77 13.96 14.77V16.39ZM16.39 13.96V11.53H14.77V13.96H16.39ZM0.19 11.53V13.96H1.81V11.53H0.19ZM0.19 13.96C0.19 15.3021 1.27795 16.39 2.62 16.39V14.77C2.17265 14.77 1.81 14.4074 1.81 13.96H0.19ZM2.62 16.39H5.05V14.77H2.62V16.39Z" fill="white"/>
</svg>
