<svg width="16" height="16" viewBox="0 0 16 16" fill="none" xmlns="http://www.w3.org/2000/svg">
<path fill-rule="evenodd" clip-rule="evenodd" d="M8.00004 14.6667C4.31804 14.6667 1.33337 11.682 1.33337 8.00004C1.33337 4.31804 4.31804 1.33337 8.00004 1.33337C11.682 1.33337 14.6667 4.31804 14.6667 8.00004C14.6667 11.682 11.682 14.6667 8.00004 14.6667ZM8.00004 13.3334C10.9456 13.3334 13.3334 10.9456 13.3334 8.00004C13.3334 5.05452 10.9456 2.66671 8.00004 2.66671C5.05452 2.66671 2.66671 5.05452 2.66671 8.00004C2.66671 10.9456 5.05452 13.3334 8.00004 13.3334ZM11.3334 8.00004H8.66671V4.66671H7.33337V9.33337H11.3334V8.00004Z" fill="#6D6D6D"/>
</svg>
