<svg width="21" height="18" viewBox="0 0 21 18" fill="none" xmlns="http://www.w3.org/2000/svg">
<path fill-rule="evenodd" clip-rule="evenodd" d="M9 1.99988L4 5.99988H0V11.9999H4L9 15.9999V1.99988Z" fill="white"/>
<path d="M17.7773 1.22293C17.3868 0.832348 16.7536 0.832253 16.363 1.22272C15.9725 1.61318 15.9724 2.24635 16.3628 2.63693L17.7773 1.22293ZM16.3628 15.3629C15.9724 15.7535 15.9725 16.3867 16.363 16.7771C16.7536 17.1676 17.3868 17.1675 17.7773 16.7769L16.3628 15.3629ZM14.2473 4.75293C13.8568 4.36235 13.2236 4.36225 12.833 4.75272C12.4425 5.14318 12.4424 5.77635 12.8328 6.16693L14.2473 4.75293ZM12.8328 11.8229C12.4424 12.2135 12.4425 12.8467 12.833 13.2371C13.2236 13.6276 13.8568 13.6275 14.2473 13.2369L12.8328 11.8229ZM16.3628 2.63693C19.8763 6.15143 19.8763 11.8484 16.3628 15.3629L17.7773 16.7769C22.0715 12.4814 22.0715 5.51843 17.7773 1.22293L16.3628 2.63693ZM12.8328 6.16693C14.3944 7.72893 14.3944 10.2609 12.8328 11.8229L14.2473 13.2369C16.5895 10.8939 16.5895 7.09593 14.2473 4.75293L12.8328 6.16693Z" fill="white"/>
</svg>
